{
    "asset" : {
        "generator" : "Khronos glTF Blender I/O v1.7.33",
        "version" : "2.0"
    },
    "scene" : 0,
    "scenes" : [
        {
            "extras" : {
                "skinify" : {
                    "connect_mesh" : 0,
                    "connect_parents" : 0,
                    "generate_all" : 0,
                    "thickness" : 0.800000011920929,
                    "finger_thickness" : 0.25,
                    "apply_mod" : 1,
                    "parent_armature" : 1,
                    "sub_level" : 1
                },
                "HG3D" : {
                    "subscribed" : 1,
                    "pcoll" : {
                        "humans" : "none"
                    },
                    "load_exception" : 0,
                    "previews_list_humans" : [
                        "models\\male\\Asian\\Asian 1.json",
                        "models\\male\\Asian\\Asian 2.json",
                        "models\\male\\Asian\\Asian 3.json",
                        "models\\male\\Asian\\Asian 4.json",
                        "models\\male\\Asian\\Asian Base.json",
                        "models\\male\\Asian\\Liam.json",
                        "models\\male\\Black\\Black 1.json",
                        "models\\male\\Black\\Black 2.json",
                        "models\\male\\Black\\Black Base.json",
                        "models\\male\\Black\\Hugo.json",
                        "models\\male\\Black\\Kent.json",
                        "models\\male\\Black\\Noah.json",
                        "models\\male\\Black\\Remy.json",
                        "models\\male\\Caucasian\\Caucasian 1.json",
                        "models\\male\\Caucasian\\Caucasian 2.json",
                        "models\\male\\Caucasian\\Caucasian 3.json",
                        "models\\male\\Caucasian\\Caucasian Base.json",
                        "models\\male\\Caucasian\\Jack.json",
                        "models\\male\\Caucasian\\Jude.json",
                        "models\\male\\Caucasian\\Nico.json",
                        "models\\male\\Caucasian\\Otto.json",
                        "models\\male\\Caucasian\\Owen.json",
                        "models\\male\\Caucasian\\Rory.json",
                        "models\\male\\Caucasian\\Theo.json",
                        "models\\male\\Hispanic\\Enzo.json",
                        "models\\male\\Hispanic\\Hispanic 1.json",
                        "models\\male\\Hispanic\\Luke.json",
                        "models\\male\\Middle Eastern\\Cole.json",
                        "models\\male\\Middle Eastern\\Middle Eastern 1.json",
                        "models\\male\\Middle Eastern\\Middle Eastern 2.json"
                    ],
                    "custom_content" : {},
                    "ui" : {}
                },
                "contentpacks_col" : [
                    {
                        "name" : "header"
                    },
                    {
                        "name" : "Base Clothes",
                        "pack_name" : "Base Clothes",
                        "creator" : "HumGen",
                        "weblink" : "https://www.humgen3d.com",
                        "description" : null,
                        "icon_name" : null,
                        "pack_version" : [
                            4,
                            0
                        ],
                        "json_path" : "E:\\Blender\\Plugins\\Human Generator\\\\content_packs\\Base_Clothes.json",
                        "humans" : 0,
                        "human_textures" : 0,
                        "shapekeys" : 0,
                        "hair" : 0,
                        "poses" : 0,
                        "clothes" : 0,
                        "footwear" : 1,
                        "expressions" : 0
                    },
                    {
                        "name" : "Base Hair",
                        "pack_name" : "Base Hair",
                        "creator" : "HumGen",
                        "weblink" : "https://www.humgen3d.com",
                        "description" : null,
                        "icon_name" : null,
                        "pack_version" : [
                            4,
                            0
                        ],
                        "json_path" : "E:\\Blender\\Plugins\\Human Generator\\\\content_packs\\Base_Hair.json",
                        "humans" : 0,
                        "human_textures" : 0,
                        "shapekeys" : 0,
                        "hair" : 1,
                        "poses" : 0,
                        "clothes" : 0,
                        "footwear" : 0,
                        "expressions" : 0
                    },
                    {
                        "name" : "Base Humans",
                        "pack_name" : "Base Humans",
                        "creator" : "HumGen",
                        "weblink" : "https://www.humgen3d.com",
                        "description" : null,
                        "icon_name" : null,
                        "pack_version" : [
                            4,
                            0
                        ],
                        "json_path" : "E:\\Blender\\Plugins\\Human Generator\\\\content_packs\\Base_Humans.json",
                        "humans" : 0,
                        "human_textures" : 0,
                        "shapekeys" : 0,
                        "hair" : 0,
                        "poses" : 0,
                        "clothes" : 0,
                        "footwear" : 0,
                        "expressions" : 1
                    },
                    {
                        "name" : "Base Poses",
                        "pack_name" : "Base Poses",
                        "creator" : "HumGen",
                        "weblink" : "https://www.humgen3d.com",
                        "description" : null,
                        "icon_name" : null,
                        "pack_version" : [
                            4,
                            0
                        ],
                        "json_path" : "E:\\Blender\\Plugins\\Human Generator\\\\content_packs\\Base_Poses.json",
                        "humans" : 0,
                        "human_textures" : 0,
                        "shapekeys" : 0,
                        "hair" : 0,
                        "poses" : 0,
                        "clothes" : 0,
                        "footwear" : 0,
                        "expressions" : 0
                    }
                ],
                "sun_pos_properties" : {
                    "day_of_year" : 145,
                    "sun_object" : {},
                    "object_collection" : {}
                },
                "keentools_fb_settings" : {},
                "b_settings" : 1,
                "b_renderer" : 1,
                "b_player" : 1,
                "b_raycast" : 1,
                "b_interactive" : 0,
                "b_bake_lightmap" : 1,
                "b_export" : 1,
                "export_path" : "E:\\Blender\\Aframe-Blender\\",
                "s_project_name" : "showroom1",
                "b_export_single_model" : 0,
                "s_output" : "exporting...",
                "b_use_lightmapper" : 1,
                "matlib" : {},
                "b_cast_shadows" : 1,
                "b_show_env_sky" : 1,
                "s_aframe_version" : "1.4.0",
                "b_physicallyCorrectLights" : 1,
                "b_colorManagement" : 1,
                "b_aa" : 1,
                "b_cubemap" : 1
            },
            "name" : "Scene",
            "nodes" : [
                3
            ]
        }
    ],
    "nodes" : [
        {
            "extras" : {
                "HG" : {}
            },
            "mesh" : 0,
            "name" : "Material2.001"
        },
        {
            "children" : [
                0
            ],
            "extras" : {
                "HG" : {}
            },
            "name" : "Superficie_de_m\ufffd\ufffdrmol"
        },
        {
            "children" : [
                1
            ],
            "name" : "instance_1",
            "rotation" : [
                0.7071068286895752,
                0,
                0,
                0.7071068286895752
            ],
            "translation" : [
                0,
                27.559059143066406,
                22.83465003967285
            ]
        },
        {
            "children" : [
                2
            ],
            "name" : "Modern Marble and Steel Table",
            "rotation" : [
                -0.7071068286895752,
                0,
                0,
                0.7071067094802856
            ],
            "scale" : [
                0.14374111592769623,
                0.11093032360076904,
                0.07869166135787964
            ],
            "translation" : [
                -26.76653480529785,
                -0.584571123123169,
                23.363121032714844
            ]
        }
    ],
    "materials" : [
        {
            "name" : "Stone_Vein_Gray",
            "pbrMetallicRoughness" : {
                "baseColorTexture" : {
                    "index" : 0
                },
                "metallicFactor" : 0,
                "metallicRoughnessTexture" : {
                    "index" : 1
                },
                "roughnessFactor" : 0.09927591681480408
            }
        },
        {
            "name" : "Metal_Corrugated_Shiny",
            "pbrMetallicRoughness" : {
                "roughnessFactor" : 0
            }
        }
    ],
    "meshes" : [
        {
            "name" : "Material2.001",
            "primitives" : [
                {
                    "attributes" : {
                        "POSITION" : 0,
                        "NORMAL" : 1,
                        "TANGENT" : 2,
                        "TEXCOORD_0" : 3
                    },
                    "indices" : 4,
                    "material" : 0
                },
                {
                    "attributes" : {
                        "POSITION" : 5,
                        "NORMAL" : 6,
                        "TANGENT" : 7,
                        "TEXCOORD_0" : 8
                    },
                    "indices" : 9,
                    "material" : 1
                }
            ]
        }
    ],
    "textures" : [
        {
            "sampler" : 0,
            "source" : 0
        },
        {
            "sampler" : 0,
            "source" : 1
        }
    ],
    "images" : [
        {
            "bufferView" : 5,
            "mimeType" : "image/png",
            "name" : "Stone_Vein_Gray_baseColor"
        },
        {
            "bufferView" : 6,
            "mimeType" : "image/png",
            "name" : "Stone_Vein_Gray_metallicRoughness"
        }
    ],
    "accessors" : [
        {
            "bufferView" : 0,
            "componentType" : 5126,
            "count" : 74,
            "max" : [
                19.685041427612305,
                5.837759494781494,
                13.779541015625
            ],
            "min" : [
                -19.68503761291504,
                4.971617698669434,
                -13.779518127441406
            ],
            "type" : "VEC3"
        },
        {
            "bufferView" : 1,
            "componentType" : 5126,
            "count" : 74,
            "type" : "VEC3"
        },
        {
            "bufferView" : 2,
            "componentType" : 5126,
            "count" : 74,
            "type" : "VEC4"
        },
        {
            "bufferView" : 3,
            "componentType" : 5126,
            "count" : 74,
            "type" : "VEC2"
        },
        {
            "bufferView" : 4,
            "componentType" : 5123,
            "count" : 108,
            "type" : "SCALAR"
        },
        {
            "bufferView" : 7,
            "componentType" : 5126,
            "count" : 214,
            "max" : [
                19.685041427612305,
                4.971616744995117,
                13.779533386230469
            ],
            "min" : [
                -19.68503761291504,
                -9.98901653289795,
                -13.779525756835938
            ],
            "type" : "VEC3"
        },
        {
            "bufferView" : 8,
            "componentType" : 5126,
            "count" : 214,
            "type" : "VEC3"
        },
        {
            "bufferView" : 9,
            "componentType" : 5126,
            "count" : 214,
            "type" : "VEC4"
        },
        {
            "bufferView" : 10,
            "componentType" : 5126,
            "count" : 214,
            "type" : "VEC2"
        },
        {
            "bufferView" : 11,
            "componentType" : 5123,
            "count" : 249,
            "type" : "SCALAR"
        }
    ],
    "bufferViews" : [
        {
            "buffer" : 0,
            "byteLength" : 888,
            "byteOffset" : 0
        },
        {
            "buffer" : 0,
            "byteLength" : 888,
            "byteOffset" : 888
        },
        {
            "buffer" : 0,
            "byteLength" : 1184,
            "byteOffset" : 1776
        },
        {
            "buffer" : 0,
            "byteLength" : 592,
            "byteOffset" : 2960
        },
        {
            "buffer" : 0,
            "byteLength" : 216,
            "byteOffset" : 3552
        },
        {
            "buffer" : 0,
            "byteLength" : 483928,
            "byteOffset" : 3768
        },
        {
            "buffer" : 0,
            "byteLength" : 484955,
            "byteOffset" : 487696
        },
        {
            "buffer" : 0,
            "byteLength" : 2568,
            "byteOffset" : 972652
        },
        {
            "buffer" : 0,
            "byteLength" : 2568,
            "byteOffset" : 975220
        },
        {
            "buffer" : 0,
            "byteLength" : 3424,
            "byteOffset" : 977788
        },
        {
            "buffer" : 0,
            "byteLength" : 1712,
            "byteOffset" : 981212
        },
        {
            "buffer" : 0,
            "byteLength" : 498,
            "byteOffset" : 982924
        }
    ],
    "samplers" : [
        {
            "magFilter" : 9729,
            "minFilter" : 9987
        }
    ],
    "buffers" : [
        {
            "byteLength" : 983424,
            "uri" : "data:application/octet-stream;base64,"
        }
    ]
}
