{
    "asset" : {
        "generator" : "Khronos glTF Blender I/O v1.7.33",
        "version" : "2.0"
    },
    "scene" : 0,
    "scenes" : [
        {
            "extras" : {
                "skinify" : {
                    "connect_mesh" : 0,
                    "connect_parents" : 0,
                    "generate_all" : 0,
                    "thickness" : 0.800000011920929,
                    "finger_thickness" : 0.25,
                    "apply_mod" : 1,
                    "parent_armature" : 1,
                    "sub_level" : 1
                },
                "HG3D" : {
                    "subscribed" : 1,
                    "pcoll" : {
                        "humans" : "none"
                    },
                    "load_exception" : 0,
                    "previews_list_humans" : [
                        "models\\male\\Asian\\Asian 1.json",
                        "models\\male\\Asian\\Asian 2.json",
                        "models\\male\\Asian\\Asian 3.json",
                        "models\\male\\Asian\\Asian 4.json",
                        "models\\male\\Asian\\Asian Base.json",
                        "models\\male\\Asian\\Liam.json",
                        "models\\male\\Black\\Black 1.json",
                        "models\\male\\Black\\Black 2.json",
                        "models\\male\\Black\\Black Base.json",
                        "models\\male\\Black\\Hugo.json",
                        "models\\male\\Black\\Kent.json",
                        "models\\male\\Black\\Noah.json",
                        "models\\male\\Black\\Remy.json",
                        "models\\male\\Caucasian\\Caucasian 1.json",
                        "models\\male\\Caucasian\\Caucasian 2.json",
                        "models\\male\\Caucasian\\Caucasian 3.json",
                        "models\\male\\Caucasian\\Caucasian Base.json",
                        "models\\male\\Caucasian\\Jack.json",
                        "models\\male\\Caucasian\\Jude.json",
                        "models\\male\\Caucasian\\Nico.json",
                        "models\\male\\Caucasian\\Otto.json",
                        "models\\male\\Caucasian\\Owen.json",
                        "models\\male\\Caucasian\\Rory.json",
                        "models\\male\\Caucasian\\Theo.json",
                        "models\\male\\Hispanic\\Enzo.json",
                        "models\\male\\Hispanic\\Hispanic 1.json",
                        "models\\male\\Hispanic\\Luke.json",
                        "models\\male\\Middle Eastern\\Cole.json",
                        "models\\male\\Middle Eastern\\Middle Eastern 1.json",
                        "models\\male\\Middle Eastern\\Middle Eastern 2.json"
                    ],
                    "custom_content" : {},
                    "ui" : {}
                },
                "contentpacks_col" : [
                    {
                        "name" : "header"
                    },
                    {
                        "name" : "Base Clothes",
                        "pack_name" : "Base Clothes",
                        "creator" : "HumGen",
                        "weblink" : "https://www.humgen3d.com",
                        "description" : null,
                        "icon_name" : null,
                        "pack_version" : [
                            4,
                            0
                        ],
                        "json_path" : "E:\\Blender\\Plugins\\Human Generator\\\\content_packs\\Base_Clothes.json",
                        "humans" : 0,
                        "human_textures" : 0,
                        "shapekeys" : 0,
                        "hair" : 0,
                        "poses" : 0,
                        "clothes" : 0,
                        "footwear" : 1,
                        "expressions" : 0
                    },
                    {
                        "name" : "Base Hair",
                        "pack_name" : "Base Hair",
                        "creator" : "HumGen",
                        "weblink" : "https://www.humgen3d.com",
                        "description" : null,
                        "icon_name" : null,
                        "pack_version" : [
                            4,
                            0
                        ],
                        "json_path" : "E:\\Blender\\Plugins\\Human Generator\\\\content_packs\\Base_Hair.json",
                        "humans" : 0,
                        "human_textures" : 0,
                        "shapekeys" : 0,
                        "hair" : 1,
                        "poses" : 0,
                        "clothes" : 0,
                        "footwear" : 0,
                        "expressions" : 0
                    },
                    {
                        "name" : "Base Humans",
                        "pack_name" : "Base Humans",
                        "creator" : "HumGen",
                        "weblink" : "https://www.humgen3d.com",
                        "description" : null,
                        "icon_name" : null,
                        "pack_version" : [
                            4,
                            0
                        ],
                        "json_path" : "E:\\Blender\\Plugins\\Human Generator\\\\content_packs\\Base_Humans.json",
                        "humans" : 0,
                        "human_textures" : 0,
                        "shapekeys" : 0,
                        "hair" : 0,
                        "poses" : 0,
                        "clothes" : 0,
                        "footwear" : 0,
                        "expressions" : 1
                    },
                    {
                        "name" : "Base Poses",
                        "pack_name" : "Base Poses",
                        "creator" : "HumGen",
                        "weblink" : "https://www.humgen3d.com",
                        "description" : null,
                        "icon_name" : null,
                        "pack_version" : [
                            4,
                            0
                        ],
                        "json_path" : "E:\\Blender\\Plugins\\Human Generator\\\\content_packs\\Base_Poses.json",
                        "humans" : 0,
                        "human_textures" : 0,
                        "shapekeys" : 0,
                        "hair" : 0,
                        "poses" : 0,
                        "clothes" : 0,
                        "footwear" : 0,
                        "expressions" : 0
                    }
                ],
                "sun_pos_properties" : {
                    "day_of_year" : 145,
                    "sun_object" : {},
                    "object_collection" : {}
                },
                "keentools_fb_settings" : {},
                "b_settings" : 1,
                "b_renderer" : 1,
                "b_player" : 1,
                "b_raycast" : 1,
                "b_interactive" : 0,
                "b_bake_lightmap" : 1,
                "b_export" : 1,
                "export_path" : "E:\\Blender\\Aframe-Blender\\",
                "s_project_name" : "showroom1",
                "b_export_single_model" : 0,
                "s_output" : "exporting...",
                "b_use_lightmapper" : 1,
                "matlib" : {},
                "b_cast_shadows" : 1,
                "b_show_env_sky" : 1,
                "s_aframe_version" : "1.4.0",
                "b_physicallyCorrectLights" : 1,
                "b_colorManagement" : 1,
                "b_aa" : 1,
                "b_cubemap" : 1
            },
            "name" : "Scene",
            "nodes" : [
                0
            ]
        }
    ],
    "nodes" : [
        {
            "extras" : {
                "HG" : {}
            },
            "mesh" : 0,
            "name" : "Modern Chair",
            "rotation" : [
                -0.7071068286895752,
                -8.146197069436312e-05,
                -8.146197797032073e-05,
                0.7071068286895752
            ],
            "scale" : [
                0.005086536984890699,
                0.0038582824636250734,
                0.004046077374368906
            ]
        }
    ],
    "materials" : [
        {
            "doubleSided" : true,
            "name" : "Material_25",
            "pbrMetallicRoughness" : {
                "baseColorTexture" : {
                    "index" : 0
                },
                "metallicFactor" : 0,
                "roughnessFactor" : 0.8929713368415833
            }
        }
    ],
    "meshes" : [
        {
            "name" : "Box001_Material #25_0",
            "primitives" : [
                {
                    "attributes" : {
                        "POSITION" : 0,
                        "NORMAL" : 1,
                        "TANGENT" : 2,
                        "TEXCOORD_0" : 3
                    },
                    "indices" : 4,
                    "material" : 0
                }
            ]
        }
    ],
    "textures" : [
        {
            "sampler" : 0,
            "source" : 0
        }
    ],
    "images" : [
        {
            "bufferView" : 5,
            "mimeType" : "image/png",
            "name" : "Material_25_baseColor"
        }
    ],
    "accessors" : [
        {
            "bufferView" : 0,
            "componentType" : 5126,
            "count" : 568,
            "max" : [
                315.30615234375,
                297.510986328125,
                294.8347473144531
            ],
            "min" : [
                -313.8478088378906,
                -361.2341003417969,
                -322.88616943359375
            ],
            "type" : "VEC3"
        },
        {
            "bufferView" : 1,
            "componentType" : 5126,
            "count" : 568,
            "type" : "VEC3"
        },
        {
            "bufferView" : 2,
            "componentType" : 5126,
            "count" : 568,
            "type" : "VEC4"
        },
        {
            "bufferView" : 3,
            "componentType" : 5126,
            "count" : 568,
            "type" : "VEC2"
        },
        {
            "bufferView" : 4,
            "componentType" : 5123,
            "count" : 2556,
            "type" : "SCALAR"
        }
    ],
    "bufferViews" : [
        {
            "buffer" : 0,
            "byteLength" : 6816,
            "byteOffset" : 0
        },
        {
            "buffer" : 0,
            "byteLength" : 6816,
            "byteOffset" : 6816
        },
        {
            "buffer" : 0,
            "byteLength" : 9088,
            "byteOffset" : 13632
        },
        {
            "buffer" : 0,
            "byteLength" : 4544,
            "byteOffset" : 22720
        },
        {
            "buffer" : 0,
            "byteLength" : 5112,
            "byteOffset" : 27264
        },
        {
            "buffer" : 0,
            "byteLength" : 869382,
            "byteOffset" : 32376
        }
    ],
    "samplers" : [
        {
            "magFilter" : 9729,
            "minFilter" : 9987
        }
    ],
    "buffers" : [
        {
            "byteLength" : 901760,
            "uri" : "data:application/octet-stream;base64,"
        }
    ]
}
